# xmcd CD database file
#
# Track frame offsets:
#	150
#	12990
#	24130
#	37245
#	50567
#	62697
#	77175
#	89307
#	101657
#	113152
#	126540
#	139102
#	153102
#	165672
#	177390
#	192110
#
# Disc length: 2767 seconds
#
# Revision: 3
# Processed by: cddbd v1.5.1PL0 Copyright (c) Steve Scherf et al.
# Submitted via: CDex 1.50Beta7
#
DISCID=d30acd10
DTITLE=Muddy Waters - Blues Cafe Presents Muddy Waters
DYEAR=2002
DGENRE=Blues
TTITLE0=Forty Days And Forty Nights
TTITLE1=I Cant Call Her Sugar
TTITLE2=You Cant Loose What You Aint Never Had
TTITLE3=Sad Letter
TTITLE4=I Cant Be Satisfied
TTITLE5=Baby Please Dont Go
TTITLE6=Walkin Thru The Park
TTITLE7=Trainfare Blues
TTITLE8=Sittin Here Drinkin
TTITLE9=I Got A Rich Mans Woman
TTITLE10=Mean Mistreater
TTITLE11=You Gonna Need My Help
TTITLE12=The Stuff You Gotta Watch
TTITLE13=You Gonna Miss Me
TTITLE14=Rock Me
TTITLE15=Iodine In My Coffee
EXTD=YEAR: 2002
EXTT0=
EXTT1=
EXTT2=
EXTT3=
EXTT4=
EXTT5=
EXTT6=
EXTT7=
EXTT8=
EXTT9=
EXTT10=
EXTT11=
EXTT12=
EXTT13=
EXTT14=
EXTT15=
PLAYORDER=
